<mxfile host="Electron" modified="2024-10-03T05:04:14.524Z" agent="Mozilla/5.0 (Windows NT 10.0; Win64; x64) AppleWebKit/537.36 (KHTML, like Gecko) draw.io/24.1.0 Chrome/120.0.6099.109 Electron/28.1.0 Safari/537.36" etag="lhqJFHv7PSychIvPQ5Ih" version="24.1.0" type="device">
  <diagram id="MhQAnbnU6FKPCHhk7HTt" name="Page-1">
    <mxGraphModel dx="1434" dy="836" grid="1" gridSize="10" guides="1" tooltips="1" connect="1" arrows="1" fold="1" page="1" pageScale="1" pageWidth="850" pageHeight="1100" background="#ffffff" math="0" shadow="0">
      <root>
        <mxCell id="0" />
        <mxCell id="1" parent="0" />
        <mxCell id="dyl6PobW5dqqVqhHU3-z-62" value="&lt;div style=&quot;text-align: justify;&quot;&gt;&lt;span style=&quot;font-weight: 700; text-wrap: nowrap; background-color: initial;&quot;&gt;&lt;font style=&quot;font-size: 14px;&quot;&gt;Animal&lt;/font&gt;&lt;/span&gt;&lt;/div&gt;&lt;div style=&quot;text-align: justify;&quot;&gt;&lt;span style=&quot;text-wrap: nowrap;&quot;&gt;- name&lt;/span&gt;&lt;span style=&quot;font-weight: 700; text-wrap: nowrap;&quot;&gt;&lt;br&gt;&lt;/span&gt;&lt;/div&gt;&lt;div style=&quot;text-align: justify;&quot;&gt;&lt;span style=&quot;text-wrap: nowrap;&quot;&gt;- date_of_birth&lt;/span&gt;&lt;span style=&quot;text-wrap: nowrap;&quot;&gt;&lt;br&gt;&lt;/span&gt;&lt;/div&gt;&lt;div style=&quot;text-align: justify;&quot;&gt;&lt;span style=&quot;text-wrap: nowrap;&quot;&gt;- commands&lt;/span&gt;&lt;span style=&quot;text-align: left; text-wrap: nowrap;&quot;&gt;&lt;br&gt;&lt;/span&gt;&lt;/div&gt;" style="rounded=1;whiteSpace=wrap;html=1;" vertex="1" parent="1">
          <mxGeometry x="350" y="30" width="185" height="80" as="geometry" />
        </mxCell>
        <mxCell id="dyl6PobW5dqqVqhHU3-z-63" value="" style="endArrow=none;html=1;rounded=0;entryX=0.408;entryY=0;entryDx=0;entryDy=0;entryPerimeter=0;exitX=0;exitY=0.5;exitDx=0;exitDy=0;" edge="1" parent="1" source="dyl6PobW5dqqVqhHU3-z-62" target="dyl6PobW5dqqVqhHU3-z-64">
          <mxGeometry width="50" height="50" relative="1" as="geometry">
            <mxPoint x="410" y="70" as="sourcePoint" />
            <mxPoint x="460" y="20" as="targetPoint" />
          </mxGeometry>
        </mxCell>
        <mxCell id="dyl6PobW5dqqVqhHU3-z-64" value="&lt;span style=&quot;font-weight: 700; text-wrap: nowrap;&quot;&gt;Pets&lt;/span&gt;" style="rounded=1;whiteSpace=wrap;html=1;" vertex="1" parent="1">
          <mxGeometry x="130" y="140" width="120" height="60" as="geometry" />
        </mxCell>
        <mxCell id="dyl6PobW5dqqVqhHU3-z-65" value="&lt;span style=&quot;font-weight: 700; text-wrap: nowrap;&quot;&gt;PackAnimals&lt;/span&gt;" style="rounded=1;whiteSpace=wrap;html=1;" vertex="1" parent="1">
          <mxGeometry x="620" y="140" width="120" height="60" as="geometry" />
        </mxCell>
        <mxCell id="dyl6PobW5dqqVqhHU3-z-66" value="" style="endArrow=none;html=1;rounded=0;entryX=0.5;entryY=0;entryDx=0;entryDy=0;exitX=1;exitY=0.5;exitDx=0;exitDy=0;" edge="1" parent="1" source="dyl6PobW5dqqVqhHU3-z-62" target="dyl6PobW5dqqVqhHU3-z-65">
          <mxGeometry width="50" height="50" relative="1" as="geometry">
            <mxPoint x="385" y="110" as="sourcePoint" />
            <mxPoint x="189" y="150" as="targetPoint" />
          </mxGeometry>
        </mxCell>
        <mxCell id="dyl6PobW5dqqVqhHU3-z-67" value="&lt;span style=&quot;font-weight: 700; text-wrap: nowrap;&quot;&gt;Dog&lt;/span&gt;" style="rounded=1;whiteSpace=wrap;html=1;" vertex="1" parent="1">
          <mxGeometry x="30" y="300" width="120" height="60" as="geometry" />
        </mxCell>
        <mxCell id="dyl6PobW5dqqVqhHU3-z-68" value="&lt;span style=&quot;font-weight: 700; text-wrap: nowrap;&quot;&gt;Cat&lt;/span&gt;" style="rounded=1;whiteSpace=wrap;html=1;" vertex="1" parent="1">
          <mxGeometry x="170" y="300" width="120" height="60" as="geometry" />
        </mxCell>
        <mxCell id="dyl6PobW5dqqVqhHU3-z-69" value="&lt;span style=&quot;font-weight: 700; text-wrap: nowrap;&quot;&gt;Hamster&lt;/span&gt;" style="rounded=1;whiteSpace=wrap;html=1;" vertex="1" parent="1">
          <mxGeometry x="310" y="300" width="120" height="60" as="geometry" />
        </mxCell>
        <mxCell id="dyl6PobW5dqqVqhHU3-z-70" value="&lt;span style=&quot;font-weight: 700; text-wrap: nowrap;&quot;&gt;Horse&lt;/span&gt;" style="rounded=1;whiteSpace=wrap;html=1;" vertex="1" parent="1">
          <mxGeometry x="450" y="300" width="120" height="60" as="geometry" />
        </mxCell>
        <mxCell id="dyl6PobW5dqqVqhHU3-z-71" value="&lt;span style=&quot;font-weight: 700; text-wrap: nowrap;&quot;&gt;Camel&lt;/span&gt;" style="rounded=1;whiteSpace=wrap;html=1;" vertex="1" parent="1">
          <mxGeometry x="590" y="300" width="120" height="60" as="geometry" />
        </mxCell>
        <mxCell id="dyl6PobW5dqqVqhHU3-z-72" value="&lt;span style=&quot;font-weight: 700; text-wrap: nowrap;&quot;&gt;Donkey&lt;/span&gt;" style="rounded=1;whiteSpace=wrap;html=1;" vertex="1" parent="1">
          <mxGeometry x="720" y="300" width="120" height="60" as="geometry" />
        </mxCell>
        <mxCell id="dyl6PobW5dqqVqhHU3-z-73" value="" style="endArrow=none;html=1;rounded=0;entryX=0.5;entryY=1;entryDx=0;entryDy=0;exitX=0.5;exitY=0;exitDx=0;exitDy=0;" edge="1" parent="1" source="dyl6PobW5dqqVqhHU3-z-67" target="dyl6PobW5dqqVqhHU3-z-64">
          <mxGeometry width="50" height="50" relative="1" as="geometry">
            <mxPoint x="385" y="110" as="sourcePoint" />
            <mxPoint x="189" y="150" as="targetPoint" />
          </mxGeometry>
        </mxCell>
        <mxCell id="dyl6PobW5dqqVqhHU3-z-74" value="" style="endArrow=none;html=1;rounded=0;entryX=0.5;entryY=1;entryDx=0;entryDy=0;exitX=0.5;exitY=0;exitDx=0;exitDy=0;" edge="1" parent="1" source="dyl6PobW5dqqVqhHU3-z-68" target="dyl6PobW5dqqVqhHU3-z-64">
          <mxGeometry width="50" height="50" relative="1" as="geometry">
            <mxPoint x="100" y="310" as="sourcePoint" />
            <mxPoint x="200" y="210" as="targetPoint" />
          </mxGeometry>
        </mxCell>
        <mxCell id="dyl6PobW5dqqVqhHU3-z-75" value="" style="endArrow=none;html=1;rounded=0;exitX=0.5;exitY=0;exitDx=0;exitDy=0;" edge="1" parent="1" source="dyl6PobW5dqqVqhHU3-z-69">
          <mxGeometry width="50" height="50" relative="1" as="geometry">
            <mxPoint x="110" y="320" as="sourcePoint" />
            <mxPoint x="190" y="200" as="targetPoint" />
          </mxGeometry>
        </mxCell>
        <mxCell id="dyl6PobW5dqqVqhHU3-z-76" value="" style="endArrow=none;html=1;rounded=0;exitX=0.5;exitY=1;exitDx=0;exitDy=0;entryX=0.5;entryY=0;entryDx=0;entryDy=0;" edge="1" parent="1" source="dyl6PobW5dqqVqhHU3-z-65" target="dyl6PobW5dqqVqhHU3-z-70">
          <mxGeometry width="50" height="50" relative="1" as="geometry">
            <mxPoint x="380" y="310" as="sourcePoint" />
            <mxPoint x="200" y="210" as="targetPoint" />
          </mxGeometry>
        </mxCell>
        <mxCell id="dyl6PobW5dqqVqhHU3-z-77" value="" style="endArrow=none;html=1;rounded=0;entryX=0.5;entryY=0;entryDx=0;entryDy=0;" edge="1" parent="1" target="dyl6PobW5dqqVqhHU3-z-71">
          <mxGeometry width="50" height="50" relative="1" as="geometry">
            <mxPoint x="680" y="200" as="sourcePoint" />
            <mxPoint x="520" y="310" as="targetPoint" />
          </mxGeometry>
        </mxCell>
        <mxCell id="dyl6PobW5dqqVqhHU3-z-78" value="" style="endArrow=none;html=1;rounded=0;entryX=0.5;entryY=0;entryDx=0;entryDy=0;" edge="1" parent="1" target="dyl6PobW5dqqVqhHU3-z-72">
          <mxGeometry width="50" height="50" relative="1" as="geometry">
            <mxPoint x="680" y="200" as="sourcePoint" />
            <mxPoint x="660" y="310" as="targetPoint" />
          </mxGeometry>
        </mxCell>
      </root>
    </mxGraphModel>
  </diagram>
</mxfile>
